<svg width="196" height="48" viewBox="0 0 196 48" fill="none" xmlns="http://www.w3.org/2000/svg">
<g clip-path="url(#clip0_7_984)">
<path d="M59.4263 33.6204H73.1359V29.4936H64.299V13.9492H59.4263V33.6204Z" fill="#2F234F"/>
<path d="M81.2582 30.8686C79.3036 30.8686 78.285 29.1629 78.285 26.6042C78.285 24.0456 79.3036 22.3123 81.2582 22.3123C83.2128 22.3123 84.2589 24.0456 84.2589 26.6042C84.2589 29.1629 83.2128 30.8686 81.2582 30.8686ZM81.2857 34.06C85.8281 34.06 88.8013 30.8411 88.8013 26.6042C88.8013 22.3674 85.8281 19.1484 81.2857 19.1484C76.7709 19.1484 73.7427 22.3674 73.7427 26.6042C73.7427 30.8411 76.7709 34.06 81.2857 34.06Z" fill="#2F234F"/>
<path d="M96.6637 38.4897C98.7559 38.4897 100.6 38.022 101.839 36.9215C102.968 35.9035 103.711 34.3628 103.711 32.2444V19.5338H99.4166V21.0469H99.3616C98.5357 19.8639 97.2693 19.1211 95.3973 19.1211C91.9011 19.1211 89.4785 22.0374 89.4785 26.1642C89.4785 30.4836 92.4242 32.8497 95.59 32.8497C97.2969 32.8497 98.3705 32.1619 99.1964 31.2265H99.3065V32.6296C99.3065 34.3353 98.5082 35.3258 96.6086 35.3258C95.122 35.3258 94.3788 34.693 94.131 33.9502H89.7813C90.2218 36.894 92.782 38.4897 96.6637 38.4897ZM96.6362 29.5207C94.9569 29.5207 93.8557 28.1451 93.8557 26.0267C93.8557 23.8807 94.9569 22.5051 96.6362 22.5051C98.5082 22.5051 99.4992 24.1008 99.4992 25.9991C99.4992 27.98 98.5908 29.5207 96.6362 29.5207Z" fill="#2F234F"/>
<path d="M112.542 30.8686C110.587 30.8686 109.569 29.1629 109.569 26.6042C109.569 24.0456 110.587 22.3123 112.542 22.3123C114.496 22.3123 115.542 24.0456 115.542 26.6042C115.542 29.1629 114.496 30.8686 112.542 30.8686ZM112.569 34.06C117.111 34.06 120.084 30.8411 120.084 26.6042C120.084 22.3674 117.111 19.1484 112.569 19.1484C108.055 19.1484 105.026 22.3674 105.026 26.6042C105.026 30.8411 108.055 34.06 112.569 34.06Z" fill="#2F234F"/>
<path d="M121.396 33.6204H125.883V19.5342H121.396V33.6204ZM121.396 17.5808H125.883V13.9492H121.396V17.5808Z" fill="#2F234F"/>
<path d="M127.83 38.2696H132.317V32.1619H132.372C133.253 33.3449 134.547 34.0602 136.364 34.0602C140.053 34.0602 142.503 31.1439 142.503 26.5769C142.503 22.34 140.218 19.1211 136.474 19.1211C134.547 19.1211 133.17 19.974 132.207 21.2395H132.124V19.5338H127.83V38.2696ZM135.207 30.5937C133.28 30.5937 132.179 29.0255 132.179 26.742C132.179 24.4585 133.17 22.7252 135.125 22.7252C137.052 22.7252 137.96 24.3209 137.96 26.742C137.96 29.1355 136.914 30.5937 135.207 30.5937Z" fill="#2F234F"/>
<path d="M149.808 34.0602C153.497 34.0602 156.222 32.4645 156.222 29.3831C156.222 25.779 153.304 25.1463 150.827 24.7336C149.037 24.4034 147.44 24.2659 147.44 23.2754C147.44 22.395 148.294 21.9824 149.395 21.9824C150.634 21.9824 151.487 22.3675 151.652 23.6331H155.782C155.562 20.8544 153.414 19.1211 149.423 19.1211C146.091 19.1211 143.339 20.6618 143.339 23.6331C143.339 26.9346 145.954 27.5949 148.404 28.0075C150.276 28.3377 151.983 28.4752 151.983 29.7408C151.983 30.6487 151.129 31.1439 149.78 31.1439C148.294 31.1439 147.358 30.4561 147.193 29.053H142.953C143.091 32.1619 145.679 34.0602 149.808 34.0602Z" fill="#2F234F"/>
<path d="M162.318 34.0331C164.273 34.0331 165.511 33.2628 166.53 31.8872H166.613V33.6204H170.907V19.5342H166.42V27.4027C166.42 29.0809 165.484 30.2364 163.942 30.2364C162.511 30.2364 161.823 29.3835 161.823 27.8429V19.5342H157.363V28.7783C157.363 31.9147 159.07 34.0331 162.318 34.0331Z" fill="#2F234F"/>
<path d="M172.859 33.62H177.347V25.724C177.347 24.0458 178.173 22.8628 179.577 22.8628C180.925 22.8628 181.559 23.7431 181.559 25.2563V33.62H186.046V25.724C186.046 24.0458 186.844 22.8628 188.276 22.8628C189.625 22.8628 190.258 23.7431 190.258 25.2563V33.62H194.745V24.4585C194.745 21.2946 193.149 19.1211 189.955 19.1211C188.138 19.1211 186.624 19.8914 185.523 21.5972H185.468C184.752 20.084 183.348 19.1211 181.504 19.1211C179.466 19.1211 178.117 20.084 177.237 21.5422H177.154V19.5338H172.859V33.62Z" fill="#2F234F"/>
<path fill-rule="evenodd" clip-rule="evenodd" d="M23.6653 46.2296C36.3354 46.2296 46.6064 35.9649 46.6064 23.3028C46.6064 10.6407 36.3354 0.375977 23.6653 0.375977C10.9952 0.375977 0.724121 10.6407 0.724121 23.3028C0.724121 35.9649 10.9952 46.2296 23.6653 46.2296ZM27.2062 18.0899C29.1617 16.1355 29.1617 12.9669 27.2062 11.0125C25.2506 9.05811 22.08 9.05811 20.1244 11.0125C18.1689 12.9669 18.1689 16.1355 20.1244 18.0899L23.6653 21.6285L27.2062 18.0899ZM28.8815 26.8415C30.8371 28.7959 34.0077 28.7959 35.9633 26.8415C37.9188 24.8871 37.9188 21.7185 35.9633 19.7641C34.0077 17.8098 30.8371 17.8098 28.8815 19.7641L25.3406 23.3029L28.8815 26.8415ZM27.2062 35.5931C29.1617 33.6387 29.1617 30.4701 27.2062 28.5157L23.6653 24.9771L20.1244 28.5157C18.1689 30.4701 18.1689 33.6387 20.1244 35.5931C22.08 37.5475 25.2506 37.5475 27.2062 35.5931ZM11.3673 26.8415C9.4117 24.8871 9.4117 21.7185 11.3673 19.7641C13.3229 17.8098 16.4935 17.8098 18.4491 19.7641L21.99 23.3029L18.4491 26.8415C16.4935 28.7959 13.3229 28.7959 11.3673 26.8415Z" fill="#7F57F1"/>
</g>
<defs>
<clipPath id="clip0_7_984">
<rect width="195" height="47" fill="white" transform="translate(0.60791 0.00585938)"/>
</clipPath>
</defs>
</svg>
