<svg width="198" height="43" viewBox="0 0 198 43" fill="none" xmlns="http://www.w3.org/2000/svg">
<path d="M31.7066 18.8912C31.1706 19.4251 30.7602 20.0693 30.5045 20.778C30.2488 21.4868 30.1542 22.2427 30.2273 22.9918L30.2018 22.9666C30.2771 23.8485 30.1569 24.7358 29.8498 25.567C29.5428 26.398 29.0563 27.1528 28.4242 27.7786C27.792 28.4042 27.0296 28.886 26.1899 29.1898C25.3504 29.4937 24.4539 29.6127 23.5632 29.5382L23.5887 29.5634C22.5231 29.4653 21.4529 29.6948 20.5239 30.2207C19.595 30.7467 18.8525 31.5435 18.3978 32.5025C17.9431 33.4615 17.7981 34.5358 17.9828 35.5794C18.1677 36.6228 18.673 37.5845 19.4301 38.3332C20.1871 39.0819 21.159 39.5813 22.2133 39.7631C23.2676 39.9451 24.3528 39.8007 25.3211 39.3497C26.2895 38.8986 27.0937 38.1631 27.6242 37.243C28.1547 36.3229 28.3856 35.2634 28.2855 34.2086L28.3124 34.2338C28.2371 33.3521 28.3572 32.4647 28.6642 31.6335C28.9713 30.8024 29.4579 30.0477 30.09 29.4219C30.7222 28.7962 31.4846 28.3145 32.3241 28.0107C33.1638 27.7068 34.0602 27.5878 34.951 27.6622L34.9242 27.637C35.7945 27.7145 36.6707 27.5732 37.4713 27.2263C38.2718 26.8794 38.971 26.338 39.5039 25.6524C40.0368 24.9668 40.3864 24.159 40.5199 23.3042C40.6536 22.4492 40.567 21.5748 40.2683 20.7616C39.9696 19.9487 39.4684 19.2235 38.8112 18.6532C38.154 18.083 37.362 17.6863 36.5086 17.4998C35.6552 17.3133 34.768 17.343 33.9293 17.5862C33.0907 17.8295 32.3277 18.2783 31.7109 18.8912H31.7066Z" fill="#394149"/>
<path d="M21.2738 26.2624L21.2469 26.2372C22.004 26.3127 22.7685 26.2207 23.4854 25.9679C24.2022 25.715 24.8533 25.3078 25.3916 24.7753C25.9297 24.2429 26.3419 23.5986 26.5977 22.8893C26.8537 22.1799 26.9472 21.4232 26.8715 20.6736L26.8984 20.6988C26.8232 19.817 26.9434 18.9296 27.2503 18.0985C27.5573 17.2674 28.044 16.5127 28.676 15.8869C29.3082 15.2612 30.0706 14.7795 30.9102 14.4757C31.7498 14.1717 32.6462 14.0528 33.537 14.1272L33.5102 14.102C34.5758 14.2011 35.6463 13.9723 36.5758 13.447C37.5054 12.9216 38.2485 12.1252 38.7039 11.1664C39.1593 10.2076 39.3048 9.13301 39.1206 8.0893C38.9365 7.04558 38.4316 6.08353 37.6747 5.33433C36.9179 4.58515 35.946 4.0853 34.8917 3.90299C33.8373 3.72067 32.7518 3.86474 31.7832 4.31557C30.8146 4.76638 30.0101 5.50201 29.4793 6.42211C28.9485 7.34219 28.7174 8.40194 28.8176 9.45682L28.7921 9.43022C28.8675 10.3121 28.7476 11.1996 28.4407 12.0308C28.1338 12.862 27.6471 13.6169 27.0151 14.2427C26.3829 14.8684 25.6203 15.3501 24.7806 15.6539C23.9408 15.9577 23.0443 16.0764 22.1535 16.0018L22.1789 16.0284C21.4219 15.953 20.6572 16.0449 19.9404 16.2978C19.2236 16.5505 18.5725 16.9579 18.0342 17.4903C17.4959 18.0227 17.084 18.667 16.828 19.3764C16.5721 20.0858 16.4786 20.8425 16.5543 21.592L16.5288 21.5668C16.6038 22.4485 16.4835 23.3359 16.1764 24.1669C15.8692 24.9978 15.3827 25.7525 14.7507 26.3782C14.1186 27.0039 13.3562 27.4855 12.5167 27.7895C11.6773 28.0935 10.7809 28.2126 9.89019 28.1384L9.91565 28.1636C8.85001 28.0645 7.77944 28.2933 6.84996 28.8187C5.92049 29.3441 5.17735 30.1404 4.72194 31.0993C4.26651 32.0581 4.12095 33.1326 4.30514 34.1763C4.48932 35.22 4.99428 36.1821 5.7511 36.9313C6.50794 37.6805 7.47981 38.1803 8.53418 38.3626C9.58854 38.5449 10.674 38.4008 11.6426 37.95C12.6112 37.4992 13.4158 36.7637 13.9465 35.8436C14.4773 34.9234 14.7084 33.8637 14.6083 32.8088L14.6351 32.834C14.5599 31.9522 14.6801 31.0648 14.9871 30.2337C15.294 29.4026 15.7807 28.6479 16.4127 28.0221C17.0449 27.3964 17.8074 26.9147 18.6469 26.6109C19.4865 26.3069 20.3829 26.1879 21.2738 26.2624Z" fill="#394149"/>
<path d="M11.7952 23.4522C12.3312 22.9185 12.7416 22.2742 12.9971 21.5654C13.2526 20.8566 13.3468 20.1006 13.2731 19.3516L13.2999 19.3768C13.2247 18.4948 13.3449 17.6071 13.6521 16.7757C13.9593 15.9444 14.4461 15.1895 15.0786 14.5637C15.711 13.938 16.4738 13.4564 17.3137 13.1526C18.1537 12.8489 19.0504 12.7303 19.9415 12.8052L19.9146 12.78C20.9798 12.8788 22.05 12.6499 22.9791 12.1246C23.9081 11.5992 24.6507 10.803 25.106 9.84452C25.5611 8.88599 25.7065 7.81184 25.5224 6.76852C25.3382 5.7252 24.8333 4.76351 24.0768 4.01459C23.3203 3.26568 22.3487 2.76599 21.2948 2.58368C20.2409 2.40136 19.1557 2.54531 18.1875 2.99586C17.2191 3.4464 16.4148 4.18164 15.8841 5.1013C15.3534 6.02096 15.1221 7.08029 15.222 8.1348L15.1965 8.10959C15.2718 8.99138 15.1515 9.8788 14.8445 10.7099C14.5375 11.541 14.051 12.2957 13.4188 12.9215C12.7867 13.5472 12.0243 14.0289 11.1847 14.3327C10.3451 14.6367 9.44865 14.7557 8.55786 14.6812L8.58332 14.7064C7.71293 14.6291 6.8369 14.7707 6.03645 15.1177C5.23599 15.4648 4.53698 16.0063 4.0042 16.692C3.47143 17.3776 3.12213 18.1854 2.98865 19.0402C2.85518 19.8952 2.94186 20.7697 3.24066 21.5825C3.53945 22.3955 4.04072 23.1205 4.69798 23.6906C5.35524 24.2608 6.14724 24.6575 7.00059 24.8439C7.85393 25.0303 8.74101 25.0005 9.57964 24.7573C10.4183 24.514 11.1813 24.0651 11.798 23.4522H11.7952Z" fill="#394149"/>
<path d="M55.6055 9.48926H59.8059V29.7235H55.6055V9.48926Z" fill="#394149"/>
<path d="M62.1848 22.7941C62.179 21.3401 62.6092 19.9169 63.421 18.705C64.2328 17.4932 65.3897 16.5471 66.7451 15.9866C68.1006 15.4261 69.5935 15.2764 71.0349 15.5566C72.4764 15.8367 73.8014 16.5339 74.8422 17.5601C75.883 18.5862 76.5927 19.895 76.8815 21.3208C77.1703 22.7465 77.025 24.2251 76.4642 25.5691C75.9035 26.9129 74.9524 28.0621 73.7314 28.8704C72.5103 29.6789 71.0745 30.1105 69.6055 30.1105C68.6305 30.1216 67.663 29.94 66.7596 29.5766C65.8561 29.2131 65.035 28.6751 64.3441 27.994C63.6531 27.3128 63.1063 26.502 62.7356 25.6093C62.3648 24.7165 62.1776 23.7594 62.1848 22.7941ZM72.8259 22.7941C72.8083 22.1674 72.6045 21.5596 72.2401 21.0468C71.8755 20.5341 71.3663 20.139 70.7763 19.9113C70.1861 19.6833 69.5413 19.6327 68.9223 19.7657C68.3033 19.8987 67.7375 20.2092 67.2959 20.6587C66.8543 21.1081 66.5562 21.6765 66.4392 22.2928C66.3221 22.9089 66.391 23.5457 66.6375 24.1233C66.884 24.7009 67.297 25.1937 67.8248 25.5402C68.3528 25.8867 68.9722 26.0715 69.6055 26.0715C70.0393 26.083 70.4708 26.0053 70.8729 25.8435C71.2748 25.6816 71.6386 25.4392 71.9411 25.1313C72.2436 24.8233 72.4785 24.4566 72.6307 24.0544C72.783 23.6522 72.8495 23.2231 72.8259 22.7941Z" fill="#394149"/>
<path d="M93.7671 15.864V29.024C93.7671 33.6804 90.0984 35.6488 86.3746 35.6488C85.0636 35.746 83.7507 35.4838 82.5801 34.8911C81.4096 34.2984 80.4266 33.398 79.7388 32.2888L83.3226 30.2378C83.6117 30.816 84.0723 31.293 84.6427 31.6051C85.2132 31.917 85.8663 32.0491 86.5146 31.9836C86.929 32.0405 87.351 32.0043 87.7495 31.8779C88.1477 31.7515 88.5123 31.538 88.8161 31.2534C89.1199 30.9686 89.3551 30.62 89.5044 30.2331C89.6536 29.8462 89.713 29.4311 89.6784 29.0184V27.7514C89.1865 28.3471 88.5605 28.8205 87.8504 29.1334C87.1403 29.4463 86.3661 29.59 85.5897 29.5532C83.7424 29.4955 81.9902 28.7286 80.704 27.4146C79.4179 26.1007 78.6987 24.3428 78.6987 22.5133C78.6987 20.6838 79.4179 18.926 80.704 17.6121C81.9902 16.298 83.7424 15.5311 85.5897 15.4734C86.3661 15.4366 87.1403 15.5804 87.8504 15.8933C88.5605 16.2062 89.1865 16.6795 89.6784 17.2752V15.8612L93.7671 15.864ZM89.6798 22.5154C89.7081 21.8454 89.533 21.1822 89.1773 20.6114C88.8216 20.0405 88.3014 19.5882 87.6838 19.3125C87.0662 19.0367 86.3794 18.9503 85.7118 19.0643C85.0441 19.1782 84.4262 19.4874 83.9374 19.952C83.4488 20.4165 83.1117 21.0152 82.9696 21.6709C82.8276 22.3267 82.887 23.0096 83.1404 23.6316C83.3937 24.2537 83.8293 24.7865 84.3911 25.1614C84.9528 25.5363 85.6152 25.7363 86.2926 25.7354C86.734 25.7659 87.1768 25.7046 87.5927 25.5554C88.0087 25.4061 88.3884 25.1722 88.7075 24.869C89.0266 24.5656 89.278 24.1995 89.4455 23.794C89.6129 23.3887 89.6928 22.9532 89.6798 22.5154Z" fill="#394149"/>
<path d="M96.1462 22.7941C96.1404 21.3401 96.5705 19.9169 97.3824 18.705C98.1942 17.4932 99.3511 16.5471 100.707 15.9866C102.062 15.4261 103.555 15.2764 104.996 15.5566C106.438 15.8367 107.763 16.5339 108.804 17.5601C109.844 18.5862 110.554 19.895 110.843 21.3208C111.132 22.7465 110.986 24.2251 110.426 25.5691C109.865 26.9129 108.914 28.0621 107.693 28.8704C106.472 29.6789 105.036 30.1105 103.567 30.1105C102.592 30.1216 101.624 29.94 100.721 29.5766C99.8175 29.2131 98.9964 28.6751 98.3055 27.994C97.6145 27.3128 97.0677 26.502 96.6971 25.6093C96.3262 24.7165 96.139 23.7594 96.1462 22.7941ZM106.787 22.7941C106.77 22.1674 106.566 21.5596 106.201 21.0468C105.837 20.5341 105.328 20.139 104.738 19.9113C104.148 19.6833 103.503 19.6327 102.884 19.7657C102.265 19.8987 101.699 20.2092 101.257 20.6587C100.816 21.1081 100.518 21.6765 100.401 22.2928C100.283 22.9089 100.352 23.5457 100.599 24.1233C100.845 24.7009 101.258 25.1937 101.786 25.5402C102.314 25.8867 102.933 26.0715 103.567 26.0715C104.001 26.083 104.432 26.0053 104.834 25.8435C105.236 25.6816 105.6 25.4392 105.903 25.1313C106.205 24.8233 106.44 24.4566 106.592 24.0544C106.744 23.6522 106.811 23.2231 106.787 22.7941Z" fill="#394149"/>
<path d="M112.946 12.1501C112.946 11.6566 113.094 11.1743 113.371 10.764C113.648 10.3538 114.042 10.034 114.502 9.84519C114.963 9.65635 115.469 9.60695 115.958 9.70321C116.447 9.79948 116.896 10.0371 117.249 10.386C117.601 10.7349 117.841 11.1794 117.938 11.6634C118.036 12.1473 117.986 12.6489 117.795 13.1048C117.604 13.5607 117.281 13.9503 116.867 14.2245C116.452 14.4986 115.965 14.6449 115.467 14.6449C114.8 14.6383 114.163 14.3734 113.692 13.9069C113.221 13.4405 112.953 12.8097 112.946 12.1501ZM113.371 15.8643H117.572V29.7243H113.365L113.371 15.8643Z" fill="#394149"/>
<path d="M135.709 22.7943C135.758 23.7103 135.623 24.6267 135.312 25.4909C135.002 26.3552 134.522 27.1501 133.9 27.8301C133.278 28.5099 132.526 29.0615 131.688 29.4529C130.85 29.8442 129.942 30.0678 129.017 30.1107C128.238 30.1527 127.46 30.0227 126.739 29.7303C126.017 29.4377 125.371 28.99 124.846 28.4195V35.2669H120.646V15.8643H124.846V17.1663C125.371 16.5962 126.018 16.1487 126.739 15.8566C127.461 15.5642 128.238 15.4345 129.017 15.4765C129.942 15.5192 130.851 15.7426 131.689 16.134C132.527 16.5255 133.279 17.0771 133.901 17.7572C134.523 18.4373 135.003 19.2325 135.313 20.097C135.623 20.9614 135.758 21.8781 135.709 22.7943ZM131.509 22.7943C131.492 22.1456 131.283 21.5162 130.907 20.9846C130.531 20.4532 130.005 20.0433 129.395 19.8064C128.784 19.5694 128.117 19.5157 127.476 19.6524C126.836 19.7889 126.25 20.1095 125.792 20.574C125.334 21.0387 125.025 21.6264 124.904 22.2641C124.782 22.9016 124.853 23.5605 125.107 24.1584C125.362 24.7564 125.789 25.2665 126.335 25.6253C126.882 25.984 127.522 26.1754 128.178 26.1753C128.628 26.1951 129.077 26.1205 129.496 25.9564C129.915 25.7925 130.294 25.5426 130.608 25.2234C130.923 24.9041 131.166 24.5227 131.321 24.1041C131.476 23.6855 131.54 23.239 131.509 22.7943Z" fill="#394149"/>
<path d="M148.671 25.5651C148.671 28.7529 145.872 30.1109 142.849 30.1109C141.627 30.2203 140.4 29.9647 139.327 29.3766C138.254 28.7886 137.383 27.8954 136.828 26.8125L140.467 24.7615C140.614 25.262 140.931 25.6975 141.363 25.995C141.795 26.2926 142.318 26.4345 142.843 26.3967C143.85 26.3967 144.355 26.0915 144.355 25.5385C144.355 24.0125 137.466 24.8175 137.466 20.0225C137.466 16.9999 140.043 15.4767 142.955 15.4767C144.049 15.4424 145.133 15.6994 146.093 16.2209C147.053 16.7425 147.855 17.5095 148.414 18.4419L144.83 20.3543C144.673 19.9912 144.412 19.682 144.078 19.4651C143.744 19.2483 143.354 19.1335 142.955 19.1349C142.226 19.1349 141.778 19.4149 141.778 19.9105C141.784 21.4911 148.671 20.4369 148.671 25.5651Z" fill="#394149"/>
<path d="M164.015 15.8643V29.7243H159.814V28.4209C159.329 28.996 158.714 29.4492 158.018 29.7432C157.322 30.0372 156.567 30.1636 155.812 30.1121C152.983 30.1121 150.579 28.1171 150.579 24.3721V15.8643H154.78V23.7631C154.744 24.0932 154.782 24.4269 154.891 24.741C154.999 25.0551 155.176 25.3421 155.407 25.5819C155.639 25.8218 155.921 26.0087 156.233 26.1298C156.545 26.2509 156.88 26.3032 157.215 26.2831C158.755 26.2831 159.819 25.3969 159.819 23.4285V15.8685L164.015 15.8643Z" fill="#394149"/>
<path d="M188.1 21.2143V29.7235H183.899V21.5741C183.899 20.1881 183.228 19.3019 181.884 19.3019C180.484 19.3019 179.699 20.2721 179.699 21.9073V29.7235H175.5V21.5741C175.5 20.1881 174.828 19.3019 173.483 19.3019C172.083 19.3019 171.3 20.2721 171.3 21.9073V29.7235H167.099V15.8635H171.3V17.1375C171.735 16.5723 172.307 16.124 172.961 15.8338C173.618 15.5434 174.336 15.4204 175.052 15.4757C175.77 15.4408 176.486 15.591 177.129 15.9115C177.771 16.2318 178.319 16.7117 178.719 17.3041C179.184 16.6843 179.801 16.1915 180.511 15.8717C181.221 15.552 182.001 15.4158 182.779 15.4757C185.994 15.4771 188.1 17.7493 188.1 21.2143Z" fill="#394149"/>
<path d="M191.653 15.7786C193.374 15.7786 194.77 14.3971 194.77 12.693C194.77 10.9889 193.374 9.60742 191.653 9.60742C189.932 9.60742 188.536 10.9889 188.536 12.693C188.536 14.3971 189.932 15.7786 191.653 15.7786Z" fill="#394149"/>
</svg>
