<svg width="195" height="37" viewBox="0 0 195 37" fill="none" xmlns="http://www.w3.org/2000/svg">
<g clip-path="url(#clip0_7_935)">
<path d="M47.2607 1.70117H52.1043V27.848H60.0741V32.2059H47.2607V1.70117Z" fill="#726BEA"/>
<path d="M69.2259 32.6419C66.8482 32.6419 65.0282 31.9737 63.7659 30.6373C62.5037 29.3009 61.8726 27.4125 61.8726 24.9721V8.93539C61.8726 6.49501 62.5037 4.60662 63.7659 3.27023C65.0282 1.93382 66.8482 1.26562 69.2259 1.26562C71.6036 1.26562 73.4236 1.93382 74.6859 3.27023C75.9481 4.60662 76.5792 6.49501 76.5792 8.93539V24.9721C76.5792 27.4125 75.9481 29.3009 74.6859 30.6373C73.4236 31.9737 71.6036 32.6419 69.2259 32.6419ZM69.2259 28.2841C70.8991 28.2841 71.7358 27.2817 71.7358 25.2771V8.63034C71.7358 6.62574 70.8991 5.62344 69.2259 5.62344C67.5526 5.62344 66.716 6.62574 66.716 8.63034V25.2771C66.716 27.2817 67.5526 28.2841 69.2259 28.2841Z" fill="#726BEA"/>
<path d="M86.7237 32.6419C84.3754 32.6419 82.5847 31.9883 81.3517 30.6809C80.1189 29.3445 79.5024 27.4416 79.5024 24.9721V8.93539C79.5024 6.46596 80.1189 4.57757 81.3517 3.27023C82.5847 1.93382 84.3754 1.26562 86.7237 1.26562C89.0721 1.26562 90.8627 1.93382 92.0956 3.27023C93.3286 4.57757 93.945 6.46596 93.945 8.93539V11.5501H89.3656V8.63034C89.3656 6.62574 88.529 5.62344 86.8558 5.62344C85.1826 5.62344 84.346 6.62574 84.346 8.63034V25.3208C84.346 27.2964 85.1826 28.2841 86.8558 28.2841C88.529 28.2841 89.3656 27.2964 89.3656 25.3208V19.3506H86.9439V14.9928H93.945V24.9721C93.945 27.4416 93.3286 29.3445 92.0956 30.6809C90.8627 31.9883 89.0721 32.6419 86.7237 32.6419Z" fill="#726BEA"/>
<path d="M104.056 32.6419C101.678 32.6419 99.8583 31.9737 98.5961 30.6373C97.3337 29.3009 96.7026 27.4125 96.7026 24.9721V8.93539C96.7026 6.49501 97.3337 4.60662 98.5961 3.27023C99.8583 1.93382 101.678 1.26562 104.056 1.26562C106.434 1.26562 108.254 1.93382 109.516 3.27023C110.778 4.60662 111.409 6.49501 111.409 8.93539V24.9721C111.409 27.4125 110.778 29.3009 109.516 30.6373C108.254 31.9737 106.434 32.6419 104.056 32.6419ZM104.056 28.2841C105.729 28.2841 106.566 27.2817 106.566 25.2771V8.63034C106.566 6.62574 105.729 5.62344 104.056 5.62344C102.383 5.62344 101.546 6.62574 101.546 8.63034V25.2771C101.546 27.2817 102.383 28.2841 104.056 28.2841Z" fill="#726BEA"/>
<path d="M114.694 1.70117H119.538V32.2059H114.694V1.70117Z" fill="#4F46E5"/>
<path d="M123.165 1.70117H130.298C132.705 1.70117 134.51 2.34032 135.714 3.61862C136.918 4.8969 137.52 6.77076 137.52 9.2402V12.2471C137.52 14.7166 136.918 16.5904 135.714 17.8687C134.51 19.147 132.705 19.7861 130.298 19.7861H128.009V32.2059H123.165V1.70117ZM130.298 15.4283C131.091 15.4283 131.678 15.2104 132.06 14.7746C132.471 14.3388 132.676 13.598 132.676 12.5521V8.93516C132.676 7.88927 132.471 7.14844 132.06 6.71266C131.678 6.27688 131.091 6.059 130.298 6.059H128.009V15.4283H130.298Z" fill="#4F46E5"/>
<path d="M146.618 32.6419C144.271 32.6419 142.495 31.9883 141.291 30.6809C140.088 29.3445 139.485 27.4416 139.485 24.9721V23.229H144.065V25.3208C144.065 27.2964 144.902 28.2841 146.575 28.2841C147.397 28.2841 148.013 28.0517 148.424 27.5869C148.864 27.093 149.085 26.3085 149.085 25.2336C149.085 23.9553 148.791 22.8368 148.204 21.8781C147.618 20.8903 146.531 19.7137 144.945 18.3482C142.949 16.6051 141.555 15.0363 140.762 13.6418C139.97 12.2183 139.574 10.6204 139.574 8.84823C139.574 6.43691 140.19 4.57757 141.423 3.27023C142.656 1.93382 144.447 1.26562 146.796 1.26562C149.114 1.26562 150.861 1.93382 152.035 3.27023C153.239 4.57757 153.84 6.46596 153.84 8.93539V10.1992H149.261V8.63034C149.261 7.58447 149.056 6.8291 148.645 6.36427C148.234 5.87039 147.632 5.62344 146.839 5.62344C145.224 5.62344 144.418 6.59669 144.418 8.54318C144.418 9.64716 144.711 10.6785 145.298 11.6372C145.914 12.5959 147.015 13.758 148.601 15.1235C150.626 16.8666 152.02 18.45 152.784 19.8735C153.547 21.2971 153.929 22.9675 153.929 24.885C153.929 27.3835 153.297 29.3009 152.035 30.6373C150.802 31.9737 148.996 32.6419 146.618 32.6419Z" fill="#4F46E5"/>
<path d="M163.751 32.6417C161.402 32.6417 159.611 31.988 158.378 30.6806C157.145 29.3443 156.529 27.4414 156.529 24.9719V1.70117H161.373V25.3206C161.373 26.3664 161.578 27.1218 161.989 27.5867C162.429 28.0514 163.046 28.2839 163.838 28.2839C164.631 28.2839 165.233 28.0514 165.644 27.5867C166.084 27.1218 166.304 26.3664 166.304 25.3206V1.70117H170.971V24.9719C170.971 27.4414 170.355 29.3443 169.122 30.6806C167.889 31.988 166.098 32.6417 163.751 32.6417Z" fill="#4F46E5"/>
<path d="M174.421 1.70117H181.335L184.417 23.5338H184.504L187.587 1.70117H194.5V32.2059H189.92V9.10947H189.833L186.309 32.2059H182.259L178.736 9.10947H178.649V32.2059H174.421V1.70117Z" fill="#4F46E5"/>
<path d="M0.5 32.2058C6.45881 32.2058 11.2893 27.425 11.2893 21.5278C11.2893 15.6304 6.45881 10.8496 0.5 10.8496V18.3242C2.28763 18.3242 3.73678 19.7585 3.73678 21.5278C3.73678 23.2969 2.28763 24.7312 0.5 24.7312V32.2058Z" fill="#726BEA"/>
<path d="M36.4646 14.4095C34.6209 13.8314 32.6575 13.5195 30.6204 13.5195C19.9442 13.5195 11.2896 22.0851 11.2896 32.6511C11.2896 33.7117 11.3768 34.7521 11.5444 35.7656H23.5553C23.1265 34.8143 22.8882 33.7603 22.8882 32.6511C22.8882 28.4247 26.35 24.9985 30.6204 24.9985C32.9545 24.9985 35.0469 26.022 36.4646 27.6402V14.4095Z" fill="#A5B4FC"/>
<path d="M2.39697 0.171875C3.29148 8.18036 10.1519 14.4094 18.4822 14.4094C26.8125 14.4094 33.6729 8.18036 34.5674 0.171875H22.9935C22.2789 1.94464 20.5283 3.19733 18.4822 3.19733C16.436 3.19733 14.6855 1.94464 13.9709 0.171875H2.39697Z" fill="#4F46E5"/>
</g>
<defs>
<clipPath id="clip0_7_935">
<rect width="194" height="36" fill="white" transform="translate(0.5 0.171875)"/>
</clipPath>
</defs>
</svg>
