<svg width="195" height="48" viewBox="0 0 195 48" fill="none" xmlns="http://www.w3.org/2000/svg">
<g clip-path="url(#clip0_7_1006)">
<path d="M57.3486 33.1956H71.1503V29.0688H62.2541V13.5244H57.3486V33.1956Z" fill="#3C2B1F"/>
<path d="M79.3272 30.4438C77.3595 30.4438 76.3341 28.7381 76.3341 26.1794C76.3341 23.6208 77.3595 21.8875 79.3272 21.8875C81.2949 21.8875 82.3481 23.6208 82.3481 26.1794C82.3481 28.7381 81.2949 30.4438 79.3272 30.4438ZM79.3549 33.6352C83.9278 33.6352 86.9209 30.4163 86.9209 26.1794C86.9209 21.9426 83.9278 18.7236 79.3549 18.7236C74.8098 18.7236 71.7612 21.9426 71.7612 26.1794C71.7612 30.4163 74.8098 33.6352 79.3549 33.6352Z" fill="#3C2B1F"/>
<path d="M94.8365 38.0649C96.9427 38.0649 98.7996 37.5972 100.047 36.4967C101.183 35.4787 101.931 33.938 101.931 31.8196V19.109H97.6079V20.6221H97.5525C96.721 19.4391 95.4462 18.6963 93.5616 18.6963C90.0419 18.6963 87.603 21.6126 87.603 25.7394C87.603 30.0588 90.5685 32.4249 93.7556 32.4249C95.4739 32.4249 96.5547 31.7371 97.3862 30.8017H97.497V32.2048C97.497 33.9105 96.6933 34.901 94.781 34.901C93.2845 34.901 92.5362 34.2682 92.2867 33.5254H87.9079C88.3513 36.4692 90.9287 38.0649 94.8365 38.0649ZM94.8087 29.0959C93.1182 29.0959 92.0096 27.7203 92.0096 25.6019C92.0096 23.4559 93.1182 22.0803 94.8087 22.0803C96.6933 22.0803 97.691 23.676 97.691 25.5743C97.691 27.5552 96.7765 29.0959 94.8087 29.0959Z" fill="#3C2B1F"/>
<path d="M110.821 30.4438C108.853 30.4438 107.828 28.7381 107.828 26.1794C107.828 23.6208 108.853 21.8875 110.821 21.8875C112.789 21.8875 113.842 23.6208 113.842 26.1794C113.842 28.7381 112.789 30.4438 110.821 30.4438ZM110.849 33.6352C115.421 33.6352 118.414 30.4163 118.414 26.1794C118.414 21.9426 115.421 18.7236 110.849 18.7236C106.303 18.7236 103.255 21.9426 103.255 26.1794C103.255 30.4163 106.303 33.6352 110.849 33.6352Z" fill="#3C2B1F"/>
<path d="M119.734 33.1956H124.251V19.1094H119.734V33.1956ZM119.734 17.156H124.251V13.5244H119.734V17.156Z" fill="#3C2B1F"/>
<path d="M126.211 37.8448H130.728V31.7371H130.784C131.671 32.9201 132.973 33.6354 134.802 33.6354C138.516 33.6354 140.983 30.7191 140.983 26.1521C140.983 21.9152 138.682 18.6963 134.913 18.6963C132.973 18.6963 131.588 19.5492 130.618 20.8147H130.534V19.109H126.211V37.8448ZM133.638 30.1689C131.698 30.1689 130.59 28.6007 130.59 26.3172C130.59 24.0337 131.588 22.3004 133.555 22.3004C135.495 22.3004 136.41 23.8961 136.41 26.3172C136.41 28.7107 135.357 30.1689 133.638 30.1689Z" fill="#3C2B1F"/>
<path d="M148.337 33.6354C152.051 33.6354 154.795 32.0397 154.795 28.9583C154.795 25.3542 151.857 24.7215 149.363 24.3088C147.561 23.9786 145.954 23.8411 145.954 22.8506C145.954 21.9702 146.813 21.5576 147.922 21.5576C149.169 21.5576 150.028 21.9427 150.194 23.2083H154.351C154.13 20.4296 151.968 18.6963 147.949 18.6963C144.596 18.6963 141.825 20.237 141.825 23.2083C141.825 26.5098 144.457 27.17 146.924 27.5827C148.809 27.9129 150.527 28.0504 150.527 29.316C150.527 30.2239 149.668 30.7191 148.31 30.7191C146.813 30.7191 145.871 30.0313 145.705 28.6282H141.437C141.575 31.7371 144.18 33.6354 148.337 33.6354Z" fill="#3C2B1F"/>
<path d="M160.931 33.6083C162.899 33.6083 164.146 32.838 165.172 31.4623H165.255V33.1956H169.578V19.1094H165.061V26.9779C165.061 28.6561 164.119 29.8116 162.567 29.8116C161.125 29.8116 160.433 28.9587 160.433 27.4181V19.1094H155.943V28.3535C155.943 31.4899 157.661 33.6083 160.931 33.6083Z" fill="#3C2B1F"/>
<path d="M171.543 33.1952H176.061V25.2992C176.061 23.621 176.892 22.4379 178.306 22.4379C179.664 22.4379 180.301 23.3183 180.301 24.8315V33.1952H184.819V25.2992C184.819 23.621 185.622 22.4379 187.063 22.4379C188.421 22.4379 189.059 23.3183 189.059 24.8315V33.1952H193.576V24.0337C193.576 20.8698 191.969 18.6963 188.754 18.6963C186.925 18.6963 185.401 19.4666 184.292 21.1724H184.237C183.516 19.6592 182.103 18.6963 180.246 18.6963C178.195 18.6963 176.837 19.6592 175.95 21.1174H175.867V19.109H171.543V33.1952Z" fill="#3C2B1F"/>
<path d="M29.7874 2.27254L25.2457 1.06445L21.4184 15.2442L17.963 2.44263L13.4212 3.65071L17.1545 17.4819L7.85566 8.25084L4.53088 11.5514L14.7306 21.6768L2.02848 18.2981L0.811523 22.8066L14.6902 26.4983C14.5313 25.8179 14.4472 25.109 14.4472 24.3807C14.4472 19.2249 18.6575 15.0453 23.8511 15.0453C29.0448 15.0453 33.255 19.2249 33.255 24.3807C33.255 25.1043 33.172 25.8089 33.0151 26.4852L45.6282 29.8402L46.8451 25.3317L32.9113 21.6253L45.6142 18.2464L44.3972 13.7378L30.464 17.4439L39.7628 8.21295L36.438 4.91241L26.3798 14.8973L29.7874 2.27254Z" fill="#F97316"/>
<path d="M33.0025 26.5371C32.6131 28.1713 31.7911 29.6395 30.6631 30.8157L39.8007 39.8868L43.1255 36.5863L33.0025 26.5371Z" fill="#F97316"/>
<path d="M30.5707 30.9111C29.4291 32.0686 27.9865 32.9324 26.3687 33.3775L29.6937 45.6961L34.2354 44.4879L30.5707 30.9111Z" fill="#F97316"/>
<path d="M26.199 33.4223C25.4484 33.6139 24.6617 33.7156 23.8509 33.7156C22.9823 33.7156 22.1412 33.5987 21.3427 33.3799L18.0146 45.7097L22.5563 46.9177L26.199 33.4223Z" fill="#F97316"/>
<path d="M21.1821 33.3339C19.589 32.8666 18.172 31.9918 17.0537 30.8311L7.89355 39.9244L11.2183 43.225L21.1821 33.3339Z" fill="#F97316"/>
<path d="M16.9775 30.751C15.8784 29.5829 15.0778 28.1344 14.6968 26.5254L2.04248 29.8914L3.25943 34.4L16.9775 30.751Z" fill="#F97316"/>
</g>
<defs>
<clipPath id="clip0_7_1006">
<rect width="194" height="47" fill="white" transform="translate(0.444824 0.00585938)"/>
</clipPath>
</defs>
</svg>
