<svg width="200" height="36" viewBox="0 0 200 36" fill="none" xmlns="http://www.w3.org/2000/svg">
<g clip-path="url(#clip0_7_948)">
<path d="M30.1681 27.4981H40.4995L14.9066 1.82422H4.5752L30.1681 27.4981Z" fill="#7476ED"/>
<path d="M20.2144 1.82422L44.8854 26.5733V1.82422H38.209V9.63799L30.4198 1.82422L20.2144 1.82422Z" fill="#E56F8C"/>
<path d="M0.25 2.68359V27.4979H6.92641V19.6841L14.7155 27.4979H24.9861L0.25 2.68359Z" fill="#64C2DB"/>
<path d="M60.9964 23.6375H66.9784V27.1738H56.4297V8.36719H60.9964V23.6375Z" fill="#3A3B7B"/>
<path d="M75.139 27.3883C73.679 27.3883 72.3615 27.0758 71.1865 26.4506C70.0292 25.8255 69.1124 24.9325 68.4358 23.7716C67.7771 22.6107 67.4478 21.2533 67.4478 19.6995C67.4478 18.1636 67.7859 16.8151 68.4625 15.6542C69.1391 14.4754 70.0649 13.5735 71.2399 12.9484C72.415 12.3233 73.7324 12.0107 75.1923 12.0107C76.6523 12.0107 77.9697 12.3233 79.1448 12.9484C80.3198 13.5735 81.2456 14.4754 81.9222 15.6542C82.5988 16.8151 82.9369 18.1636 82.9369 19.6995C82.9369 21.2354 82.5898 22.5928 81.8954 23.7716C81.2189 24.9325 80.2842 25.8255 79.0913 26.4506C77.9163 27.0758 76.5988 27.3883 75.139 27.3883ZM75.139 23.4233C76.0113 23.4233 76.7502 23.1018 77.3555 22.4589C77.9786 21.8159 78.2902 20.8962 78.2902 19.6995C78.2902 18.5028 77.9875 17.5831 77.3822 16.9402C76.7947 16.2972 76.0647 15.9757 75.1923 15.9757C74.3021 15.9757 73.5633 16.2972 72.9758 16.9402C72.3883 17.5652 72.0945 18.4851 72.0945 19.6995C72.0945 20.8962 72.3793 21.8159 72.9491 22.4589C73.5366 23.1018 74.2666 23.4233 75.139 23.4233Z" fill="#3A3B7B"/>
<path d="M90.22 12.0107C91.2704 12.0107 92.1874 12.2251 92.9707 12.6537C93.7719 13.0824 94.3861 13.645 94.8134 14.3415V12.2251H99.38V27.1472C99.38 28.5224 99.104 29.7636 98.5521 30.8709C98.0181 31.9961 97.1901 32.8891 96.0685 33.55C94.9647 34.2108 93.5849 34.5413 91.9292 34.5413C89.7214 34.5413 87.9323 34.0143 86.5613 32.9606C85.1904 31.9247 84.4071 30.5138 84.2112 28.7278H88.7245C88.8669 29.2993 89.2052 29.7457 89.7393 30.0672C90.2735 30.4066 90.9321 30.5763 91.7156 30.5763C92.6591 30.5763 93.4068 30.2995 93.9589 29.7457C94.5285 29.21 94.8134 28.3438 94.8134 27.1472V25.0307C94.3682 25.7272 93.754 26.2988 92.9707 26.7453C92.1874 27.1739 91.2704 27.3883 90.22 27.3883C88.9916 27.3883 87.8788 27.0758 86.8818 26.4506C85.8847 25.8076 85.0925 24.9058 84.5051 23.7448C83.9353 22.5661 83.6504 21.2087 83.6504 19.6727C83.6504 18.1368 83.9353 16.7884 84.5051 15.6274C85.0925 14.4666 85.8847 13.5735 86.8818 12.9484C87.8788 12.3233 88.9916 12.0107 90.22 12.0107ZM94.8134 19.6995C94.8134 18.5565 94.4929 17.6545 93.852 16.9937C93.2289 16.3328 92.4632 16.0024 91.5553 16.0024C90.6473 16.0024 89.8729 16.3328 89.2319 16.9937C88.6087 17.6367 88.2972 18.5297 88.2972 19.6727C88.2972 20.8158 88.6087 21.7266 89.2319 22.4053C89.8729 23.0662 90.6473 23.3965 91.5553 23.3965C92.4632 23.3965 93.2289 23.0662 93.852 22.4053C94.4929 21.7445 94.8134 20.8425 94.8134 19.6995Z" fill="#3A3B7B"/>
<path d="M108.666 27.3883C107.206 27.3883 105.888 27.0758 104.713 26.4506C103.556 25.8255 102.639 24.9325 101.963 23.7716C101.304 22.6107 100.975 21.2533 100.975 19.6995C100.975 18.1636 101.313 16.8151 101.989 15.6542C102.666 14.4754 103.592 13.5735 104.767 12.9484C105.942 12.3233 107.259 12.0107 108.719 12.0107C110.179 12.0107 111.497 12.3233 112.672 12.9484C113.847 13.5735 114.773 14.4754 115.449 15.6542C116.126 16.8151 116.464 18.1636 116.464 19.6995C116.464 21.2354 116.117 22.5928 115.422 23.7716C114.746 24.9325 113.811 25.8255 112.618 26.4506C111.443 27.0758 110.126 27.3883 108.666 27.3883ZM108.666 23.4233C109.538 23.4233 110.277 23.1018 110.882 22.4589C111.506 21.8159 111.817 20.8962 111.817 19.6995C111.817 18.5028 111.514 17.5831 110.909 16.9402C110.322 16.2972 109.592 15.9757 108.719 15.9757C107.829 15.9757 107.09 16.2972 106.503 16.9402C105.915 17.5652 105.621 18.4851 105.621 19.6995C105.621 20.8962 105.906 21.8159 106.476 22.4589C107.063 23.1018 107.793 23.4233 108.666 23.4233Z" fill="#3A3B7B"/>
<path d="M120.382 10.671C119.581 10.671 118.922 10.4388 118.406 9.97447C117.907 9.49225 117.658 8.90288 117.658 8.20633C117.658 7.49192 117.907 6.90254 118.406 6.43818C118.922 5.95595 119.581 5.71484 120.382 5.71484C121.166 5.71484 121.806 5.95595 122.305 6.43818C122.821 6.90254 123.079 7.49192 123.079 8.20633C123.079 8.90288 122.821 9.49225 122.305 9.97447C121.806 10.4388 121.166 10.671 120.382 10.671ZM122.652 12.2248V27.1737H118.085V12.2248H122.652Z" fill="#3A3B7B"/>
<path d="M129.727 14.3415C130.172 13.645 130.786 13.0824 131.569 12.6537C132.352 12.2251 133.27 12.0107 134.32 12.0107C135.549 12.0107 136.662 12.3233 137.658 12.9484C138.656 13.5735 139.439 14.4666 140.009 15.6274C140.597 16.7884 140.89 18.1368 140.89 19.6727C140.89 21.2087 140.597 22.5661 140.009 23.7448C139.439 24.9058 138.656 25.8076 137.658 26.4506C136.662 27.0758 135.549 27.3883 134.32 27.3883C133.288 27.3883 132.37 27.1739 131.569 26.7453C130.786 26.3167 130.172 25.763 129.727 25.0843V34.3002H125.16V12.2251H129.727V14.3415ZM136.243 19.6727C136.243 18.5297 135.923 17.6367 135.282 16.9937C134.659 16.3328 133.884 16.0024 132.958 16.0024C132.05 16.0024 131.276 16.3328 130.635 16.9937C130.012 17.6545 129.701 18.5565 129.701 19.6995C129.701 20.8425 130.012 21.7445 130.635 22.4053C131.276 23.0662 132.05 23.3965 132.958 23.3965C133.867 23.3965 134.641 23.0662 135.282 22.4053C135.923 21.7266 136.243 20.8158 136.243 19.6727Z" fill="#3A3B7B"/>
<path d="M148.547 27.3883C147.247 27.3883 146.09 27.1651 145.076 26.7185C144.06 26.2721 143.259 25.6647 142.672 24.8968C142.084 24.111 141.755 23.2357 141.684 22.2713H146.197C146.25 22.7893 146.491 23.209 146.918 23.5305C147.345 23.852 147.871 24.0127 148.494 24.0127C149.063 24.0127 149.499 23.9055 149.803 23.6913C150.123 23.4591 150.283 23.1643 150.283 22.8072C150.283 22.3785 150.06 22.066 149.615 21.8695C149.169 21.6552 148.448 21.423 147.452 21.1729C146.383 20.9229 145.493 20.6639 144.781 20.3961C144.069 20.1102 143.455 19.6727 142.938 19.0833C142.423 18.4761 142.164 17.6635 142.164 16.6454C142.164 15.7881 142.396 15.0113 142.858 14.3146C143.339 13.6003 144.034 13.0377 144.941 12.6269C145.868 12.2161 146.962 12.0107 148.226 12.0107C150.096 12.0107 151.565 12.4751 152.632 13.4038C153.719 14.3325 154.342 15.5649 154.502 17.1009H150.283C150.211 16.5829 149.98 16.1721 149.588 15.8685C149.215 15.5649 148.716 15.4131 148.093 15.4131C147.559 15.4131 147.15 15.5202 146.864 15.7346C146.58 15.931 146.438 16.2079 146.438 16.565C146.438 16.9937 146.66 17.3152 147.104 17.5295C147.567 17.7439 148.28 17.9581 149.242 18.1724C150.345 18.4582 151.245 18.744 151.939 19.0298C152.632 19.2976 153.239 19.7442 153.754 20.3692C154.289 20.9766 154.564 21.798 154.582 22.8339C154.582 23.7092 154.333 24.495 153.834 25.1915C153.354 25.8702 152.651 26.406 151.725 26.7989C150.817 27.1918 149.757 27.3883 148.547 27.3883Z" fill="#3A3B7B"/>
<path d="M171.289 12.2246V27.1734H166.723V25.1375C166.26 25.7983 165.628 26.3341 164.827 26.7449C164.044 27.1378 163.172 27.3342 162.21 27.3342C161.071 27.3342 160.064 27.0843 159.192 26.5841C158.319 26.0661 157.644 25.3249 157.163 24.3605C156.682 23.396 156.442 22.262 156.442 20.9582V12.2246H160.981V20.342C160.981 21.3422 161.24 22.1191 161.755 22.6727C162.272 23.2265 162.966 23.5032 163.838 23.5032C164.729 23.5032 165.432 23.2265 165.949 22.6727C166.466 22.1191 166.723 21.3422 166.723 20.342V12.2246H171.289Z" fill="#3A3B7B"/>
<path d="M192.783 12.0645C194.634 12.0645 196.104 12.627 197.189 13.7522C198.294 14.8774 198.846 16.4402 198.846 18.4405V27.174H194.305V19.0566C194.305 18.0922 194.048 17.3511 193.531 16.8331C193.032 16.2973 192.338 16.0294 191.448 16.0294C190.557 16.0294 189.854 16.2973 189.338 16.8331C188.84 17.3511 188.591 18.0922 188.591 19.0566V27.174H184.05V19.0566C184.05 18.0922 183.793 17.3511 183.276 16.8331C182.777 16.2973 182.083 16.0294 181.193 16.0294C180.302 16.0294 179.599 16.2973 179.083 16.8331C178.585 17.3511 178.336 18.0922 178.336 19.0566V27.174H173.769V12.2252H178.336V14.1005C178.798 13.4754 179.403 12.9843 180.151 12.627C180.899 12.252 181.745 12.0645 182.688 12.0645C183.809 12.0645 184.807 12.3056 185.679 12.7878C186.57 13.27 187.264 13.9576 187.762 14.8507C188.279 14.0291 188.982 13.3593 189.873 12.8414C190.763 12.3234 191.733 12.0645 192.783 12.0645Z" fill="#3A3B7B"/>
</g>
<defs>
<clipPath id="clip0_7_948">
<rect width="199" height="35" fill="white" transform="translate(0.25 0.671875)"/>
</clipPath>
</defs>
</svg>
