<svg width="199" height="48" viewBox="0 0 199 48" fill="none" xmlns="http://www.w3.org/2000/svg">
<g clip-path="url(#clip0_7_973)">
<path d="M57.9395 33.013H72.1101V28.8862H62.976V13.3418H57.9395V33.013Z" fill="#2F234F"/>
<path d="M80.506 30.2622C78.4857 30.2622 77.4329 28.5564 77.4329 25.9978C77.4329 23.4392 78.4857 21.7059 80.506 21.7059C82.5263 21.7059 83.6076 23.4392 83.6076 25.9978C83.6076 28.5564 82.5263 30.2622 80.506 30.2622ZM80.5345 33.4536C85.2296 33.4536 88.3027 30.2347 88.3027 25.9978C88.3027 21.7609 85.2296 18.542 80.5345 18.542C75.8678 18.542 72.7378 21.7609 72.7378 25.9978C72.7378 30.2347 75.8678 33.4536 80.5345 33.4536Z" fill="#2F234F"/>
<path d="M96.4297 37.8832C98.5923 37.8832 100.499 37.4155 101.779 36.315C102.946 35.2971 103.714 33.7564 103.714 31.638V18.9273H99.2752V20.4405H99.2183C98.3647 19.2575 97.0557 18.5146 95.1208 18.5146C91.507 18.5146 89.0029 21.4309 89.0029 25.5578C89.0029 29.8772 92.0476 32.2432 95.32 32.2432C97.0842 32.2432 98.1939 31.5554 99.0476 30.62H99.1614V32.0231C99.1614 33.7289 98.3362 34.7193 96.3728 34.7193C94.8362 34.7193 94.0679 34.0866 93.8118 33.3437H89.3159C89.7712 36.2875 92.4175 37.8832 96.4297 37.8832ZM96.4013 28.9143C94.6655 28.9143 93.5273 27.5386 93.5273 25.4202C93.5273 23.2743 94.6655 21.8987 96.4013 21.8987C98.3362 21.8987 99.3606 23.4944 99.3606 25.3927C99.3606 27.3736 98.4216 28.9143 96.4013 28.9143Z" fill="#2F234F"/>
<path d="M112.841 30.2622C110.821 30.2622 109.768 28.5564 109.768 25.9978C109.768 23.4392 110.821 21.7059 112.841 21.7059C114.862 21.7059 115.943 23.4392 115.943 25.9978C115.943 28.5564 114.862 30.2622 112.841 30.2622ZM112.87 33.4536C117.565 33.4536 120.639 30.2347 120.639 25.9978C120.639 21.7609 117.565 18.542 112.87 18.542C108.203 18.542 105.073 21.7609 105.073 25.9978C105.073 30.2347 108.203 33.4536 112.87 33.4536Z" fill="#2F234F"/>
<path d="M121.993 33.013H126.631V18.9268H121.993V33.013ZM121.993 16.9734H126.631V13.3418H121.993V16.9734Z" fill="#2F234F"/>
<path d="M128.643 37.6631H133.281V31.5554H133.338C134.248 32.7385 135.586 33.4538 137.464 33.4538C141.277 33.4538 143.809 30.5375 143.809 25.9705C143.809 21.7336 141.447 18.5146 137.577 18.5146C135.586 18.5146 134.163 19.3675 133.167 20.6331H133.082V18.9273H128.643V37.6631ZM136.269 29.9872C134.277 29.9872 133.138 28.419 133.138 26.1355C133.138 23.852 134.163 22.1187 136.183 22.1187C138.175 22.1187 139.114 23.7145 139.114 26.1355C139.114 28.5291 138.033 29.9872 136.269 29.9872Z" fill="#2F234F"/>
<path d="M151.362 33.4538C155.175 33.4538 157.992 31.8581 157.992 28.7767C157.992 25.1726 154.975 24.5398 152.415 24.1271C150.565 23.797 148.915 23.6594 148.915 22.669C148.915 21.7886 149.797 21.3759 150.935 21.3759C152.215 21.3759 153.097 21.7611 153.268 23.0266H157.536C157.309 20.2479 155.089 18.5146 150.963 18.5146C147.52 18.5146 144.675 20.0553 144.675 23.0266C144.675 26.3281 147.378 26.9884 149.91 27.4011C151.845 27.7312 153.61 27.8688 153.61 29.1344C153.61 30.0423 152.728 30.5375 151.333 30.5375C149.797 30.5375 148.829 29.8497 148.658 28.4466H144.276C144.419 31.5554 147.093 33.4538 151.362 33.4538Z" fill="#2F234F"/>
<path d="M164.291 33.4257C166.311 33.4257 167.592 32.6553 168.644 31.2797H168.73V33.013H173.169V18.9268H168.531V26.7952C168.531 28.4735 167.563 29.629 165.97 29.629C164.49 29.629 163.779 28.7761 163.779 27.2354V18.9268H159.169V28.1709C159.169 31.3072 160.933 33.4257 164.291 33.4257Z" fill="#2F234F"/>
<path d="M175.187 33.0136H179.825V25.1176C179.825 23.4393 180.679 22.2563 182.13 22.2563C183.524 22.2563 184.179 23.1367 184.179 24.6499V33.0136H188.817V25.1176C188.817 23.4393 189.642 22.2563 191.122 22.2563C192.516 22.2563 193.171 23.1367 193.171 24.6499V33.0136H197.809V23.852C197.809 20.6881 196.158 18.5146 192.858 18.5146C190.98 18.5146 189.415 19.285 188.276 20.9907H188.219C187.48 19.4776 186.028 18.5146 184.122 18.5146C182.016 18.5146 180.622 19.4776 179.711 20.9357H179.626V18.9273H175.187V33.0136Z" fill="#2F234F"/>
<path fill-rule="evenodd" clip-rule="evenodd" d="M10.5422 4.46716C8.84599 5.61391 7.31214 6.96975 5.98062 8.49601C11.4218 8.00759 18.3347 8.80512 26.3604 12.6851C34.9309 16.8282 41.8322 16.9682 46.6352 16.0725C46.1993 14.7967 45.6506 13.5706 45.0008 12.405C39.5027 12.9657 32.4541 12.2235 24.2396 8.2525C19.0233 5.73078 14.4252 4.692 10.5422 4.46716ZM41.789 7.98502C37.4471 3.2946 31.1373 0.342773 24.1144 0.342773C22.052 0.342773 20.0509 0.597384 18.1432 1.07584C20.7269 1.75746 23.4717 2.75466 26.3604 4.15122C32.3747 7.05864 37.567 7.99478 41.789 7.98502ZM47.662 20.5506C41.8596 21.6584 33.847 21.4308 24.2396 16.7863C15.2577 12.4442 8.10895 12.4989 3.28756 13.5348C3.03869 13.5883 2.79569 13.6444 2.55855 13.7029C1.92731 15.0302 1.42343 16.426 1.0619 17.8755C1.44804 17.7757 1.84705 17.6809 2.25874 17.5924C8.10793 16.3357 16.3723 16.3903 26.3604 21.2189C35.3424 25.561 42.4912 25.5063 47.3126 24.4704C47.4778 24.4349 47.6406 24.3983 47.8006 24.3604C47.8182 23.999 47.827 23.6353 47.827 23.2696C47.827 22.3496 47.771 21.4423 47.662 20.5506ZM47.0264 29.1988C41.2803 30.1701 33.501 29.7973 24.2396 25.3201C15.2577 20.978 8.10895 21.0327 3.28756 22.0687C2.21735 22.2985 1.25461 22.5786 0.405329 22.8742C0.403014 23.0057 0.401855 23.1375 0.401855 23.2696C0.401855 35.9317 11.0183 46.1964 24.1144 46.1964C35.0899 46.1964 44.3238 38.9869 47.0264 29.1988Z" fill="#7F57F1"/>
</g>
<defs>
<clipPath id="clip0_7_973">
<rect width="198" height="47" fill="white" transform="translate(0.281738 0.00585938)"/>
</clipPath>
</defs>
</svg>
