<svg width="198" height="48" viewBox="0 0 198 48" fill="none" xmlns="http://www.w3.org/2000/svg">
<g clip-path="url(#clip0_7_995)">
<path d="M60.4019 32.9281H74.3224V28.8012H65.3495V13.2568H60.4019V32.9281Z" fill="#340E0E"/>
<path d="M82.5696 30.1763C80.585 30.1763 79.5507 28.4705 79.5507 25.9119C79.5507 23.3532 80.585 21.62 82.5696 21.62C84.5543 21.62 85.6165 23.3532 85.6165 25.9119C85.6165 28.4705 84.5543 30.1763 82.5696 30.1763ZM82.5976 33.3677C87.2098 33.3677 90.2287 30.1487 90.2287 25.9119C90.2287 21.675 87.2098 18.4561 82.5976 18.4561C78.0133 18.4561 74.9385 21.675 74.9385 25.9119C74.9385 30.1487 78.0133 33.3677 82.5976 33.3677Z" fill="#340E0E"/>
<path d="M98.2122 37.7973C100.337 37.7973 102.209 37.3296 103.467 36.2291C104.613 35.2111 105.368 33.6705 105.368 31.552V18.8414H101.008V20.3546H100.952C100.113 19.1715 98.8272 18.4287 96.9264 18.4287C93.3764 18.4287 90.9165 21.345 90.9165 25.4718C90.9165 29.7912 93.9075 32.1573 97.1221 32.1573C98.8551 32.1573 99.9453 31.4695 100.784 30.5341H100.896V31.9372C100.896 33.643 100.085 34.6334 98.1563 34.6334C96.6469 34.6334 95.8921 34.0006 95.6406 33.2578H91.224C91.6712 36.2016 94.2709 37.7973 98.2122 37.7973ZM98.1843 28.8283C96.4791 28.8283 95.361 27.4527 95.361 25.3343C95.361 23.1883 96.4791 21.8127 98.1843 21.8127C100.085 21.8127 101.091 23.4084 101.091 25.3068C101.091 27.2876 100.169 28.8283 98.1843 28.8283Z" fill="#340E0E"/>
<path d="M114.334 30.1763C112.35 30.1763 111.315 28.4705 111.315 25.9119C111.315 23.3532 112.35 21.62 114.334 21.62C116.319 21.62 117.381 23.3532 117.381 25.9119C117.381 28.4705 116.319 30.1763 114.334 30.1763ZM114.362 33.3677C118.974 33.3677 121.993 30.1487 121.993 25.9119C121.993 21.675 118.974 18.4561 114.362 18.4561C109.778 18.4561 106.703 21.675 106.703 25.9119C106.703 30.1487 109.778 33.3677 114.362 33.3677Z" fill="#340E0E"/>
<path d="M123.324 32.9281H127.88V18.8418H123.324V32.9281ZM123.324 16.8884H127.88V13.2568H123.324V16.8884Z" fill="#340E0E"/>
<path d="M129.858 37.5772H134.414V31.4695H134.47C135.365 32.6525 136.678 33.3678 138.523 33.3678C142.269 33.3678 144.757 30.4515 144.757 25.8845C144.757 21.6476 142.437 18.4287 138.635 18.4287C136.678 18.4287 135.281 19.2816 134.302 20.5471H134.219V18.8414H129.858V37.5772ZM137.349 29.9013C135.393 29.9013 134.274 28.3331 134.274 26.0496C134.274 23.7661 135.281 22.0328 137.265 22.0328C139.222 22.0328 140.145 23.6285 140.145 26.0496C140.145 28.4432 139.082 29.9013 137.349 29.9013Z" fill="#340E0E"/>
<path d="M152.175 33.3678C155.92 33.3678 158.688 31.7721 158.688 28.6908C158.688 25.0867 155.725 24.4539 153.209 24.0412C151.392 23.7111 149.771 23.5735 149.771 22.5831C149.771 21.7027 150.637 21.29 151.755 21.29C153.013 21.29 153.88 21.6752 154.047 22.9407H158.24C158.017 20.162 155.836 18.4287 151.783 18.4287C148.401 18.4287 145.606 19.9694 145.606 22.9407C145.606 26.2422 148.261 26.9025 150.749 27.3152C152.65 27.6453 154.383 27.7829 154.383 29.0484C154.383 29.9563 153.516 30.4515 152.147 30.4515C150.637 30.4515 149.687 29.7637 149.519 28.3606H145.214C145.354 31.4695 147.982 33.3678 152.175 33.3678Z" fill="#340E0E"/>
<path d="M164.877 33.3407C166.861 33.3407 168.119 32.5704 169.154 31.1948H169.237V32.928H173.598V18.8418H169.042V26.7103C169.042 28.3885 168.091 29.544 166.526 29.544C165.072 29.544 164.374 28.6912 164.374 27.1505V18.8418H159.845V28.0859C159.845 31.2223 161.578 33.3407 164.877 33.3407Z" fill="#340E0E"/>
<path d="M175.58 32.9276H180.136V25.0316C180.136 23.3534 180.975 22.1704 182.4 22.1704C183.77 22.1704 184.413 23.0508 184.413 24.5639V32.9276H188.969V25.0316C188.969 23.3534 189.78 22.1704 191.233 22.1704C192.603 22.1704 193.246 23.0508 193.246 24.5639V32.9276H197.802V23.7661C197.802 20.6022 196.181 18.4287 192.938 18.4287C191.093 18.4287 189.556 19.1991 188.438 20.9048H188.382C187.655 19.3916 186.23 18.4287 184.357 18.4287C182.288 18.4287 180.919 19.3916 180.024 20.8498H179.94V18.8414H175.58V32.9276Z" fill="#340E0E"/>
<path fill-rule="evenodd" clip-rule="evenodd" d="M24.091 46.6837C36.956 46.6837 47.3851 36.419 47.3851 23.7569C47.3851 11.0948 36.956 0.830078 24.091 0.830078C11.226 0.830078 0.796875 11.0948 0.796875 23.7569C0.796875 36.419 11.226 46.6837 24.091 46.6837ZM31.358 11.5104C31.7117 10.2737 30.4924 9.54242 29.3788 10.3233L13.8336 21.223C12.6259 22.0698 12.8158 23.7569 14.1189 23.7569H18.2124V23.7257H26.1904L19.6898 25.9832L16.8241 36.0035C16.4703 37.2401 17.6896 37.9714 18.8032 37.1905L34.3485 26.2909C35.5561 25.4441 35.3661 23.7569 34.0631 23.7569H27.8555L31.358 11.5104Z" fill="#F15757"/>
</g>
<defs>
<clipPath id="clip0_7_995">
<rect width="198" height="47" fill="white" transform="translate(0 0.671875)"/>
</clipPath>
</defs>
</svg>
