<svg width="199" height="51" viewBox="0 0 199 51" fill="none" xmlns="http://www.w3.org/2000/svg">
<g clip-path="url(#clip0_7_961)">
<path d="M1.88721 37.2531L1.88721 12.5322L14.044 19.3992V30.4548L23.7696 36.0171L33.495 30.4548V19.3992L45.652 12.5322V37.2531L23.7696 49.6135L1.88721 37.2531Z" fill="#192657"/>
<path fill-rule="evenodd" clip-rule="evenodd" d="M7.96565 15.9658L1.88721 12.5323L23.7696 0.171875L45.652 12.5323L39.5735 15.9658V34.1631L23.7696 43.4335L7.96563 34.1631L7.96565 15.9658ZM38.915 16.3378L33.495 19.3992V19.3306L23.7696 13.7683L14.044 19.3306V19.3992L8.62413 16.3378V33.7828L23.7696 42.6669L38.915 33.7828V16.3378Z" fill="url(#paint0_linear_7_961)"/>
<path d="M57.3032 35.2997V14.5342H61.1545V31.7398H70.4911V35.2997H57.3032Z" fill="#192657"/>
<path d="M78.8061 35.7144C77.3668 35.7144 76.0733 35.4178 74.9257 34.8244C73.778 34.2311 72.8736 33.3708 72.2123 32.2436C71.5509 31.1164 71.2202 29.7616 71.2202 28.1795V27.7048C71.2202 26.1227 71.5509 24.7679 72.2123 23.6407C72.8736 22.5135 73.778 21.6532 74.9257 21.0599C76.0733 20.4665 77.3668 20.1699 78.8061 20.1699C80.2455 20.1699 81.539 20.4665 82.6866 21.0599C83.8342 21.6532 84.7387 22.5135 85.4 23.6407C86.0613 24.7679 86.3921 26.1227 86.3921 27.7048V28.1795C86.3921 29.7616 86.0613 31.1164 85.4 32.2436C84.7387 33.3708 83.8342 34.2311 82.6866 34.8244C81.539 35.4178 80.2455 35.7144 78.8061 35.7144ZM78.8061 32.3919C79.9343 32.3919 80.868 32.0261 81.6071 31.2943C82.3463 30.5428 82.7157 29.4748 82.7157 28.0904V27.7939C82.7157 26.4095 82.3463 25.3514 81.6071 24.6197C80.8874 23.8682 79.9537 23.4924 78.8061 23.4924C77.678 23.4924 76.7443 23.8682 76.0052 24.6197C75.266 25.3514 74.8965 26.4095 74.8965 27.7939V28.0904C74.8965 29.4748 75.266 30.5428 76.0052 31.2943C76.7443 32.0261 77.678 32.3919 78.8061 32.3919Z" fill="#192657"/>
<path d="M87.772 28.0015V27.5269C87.772 25.9843 88.0734 24.6691 88.6764 23.5814C89.2794 22.4739 90.0769 21.6333 91.0689 21.0599C92.0803 20.4665 93.1793 20.1699 94.3658 20.1699C95.6885 20.1699 96.6903 20.4073 97.371 20.8819C98.0518 21.3565 98.5478 21.851 98.8589 22.3652H99.3842V20.5852H103.002V37.9097C103.002 38.9182 102.71 39.7191 102.127 40.3126C101.543 40.9256 100.765 41.2322 99.7926 41.2322H90.106V37.969H98.5089C99.0534 37.969 99.3259 37.6723 99.3259 37.079V33.2522H98.8006C98.6061 33.5686 98.3338 33.8949 97.9837 34.2311C97.6335 34.5476 97.1667 34.8145 96.5832 35.0322C95.9997 35.2497 95.2605 35.3585 94.3658 35.3585C93.1793 35.3585 92.0803 35.0716 91.0689 34.4981C90.0769 33.9048 89.2794 33.0643 88.6764 31.9766C88.0734 30.8691 87.772 29.5441 87.772 28.0015ZM95.4162 32.0953C96.5443 32.0953 97.4877 31.7294 98.2463 30.9977C99.0049 30.266 99.3842 29.2376 99.3842 27.9126V27.6158C99.3842 26.271 99.0049 25.2427 98.2463 24.5307C97.5071 23.799 96.5638 23.4331 95.4162 23.4331C94.288 23.4331 93.3446 23.799 92.5861 24.5307C91.8275 25.2427 91.4482 26.271 91.4482 27.6158V27.9126C91.4482 29.2376 91.8275 30.266 92.5861 30.9977C93.3446 31.7294 94.288 32.0953 95.4162 32.0953Z" fill="#192657"/>
<path d="M112.651 35.7144C111.211 35.7144 109.918 35.4178 108.77 34.8244C107.623 34.2311 106.718 33.3708 106.057 32.2436C105.396 31.1164 105.065 29.7616 105.065 28.1795V27.7048C105.065 26.1227 105.396 24.7679 106.057 23.6407C106.718 22.5135 107.623 21.6532 108.77 21.0599C109.918 20.4665 111.211 20.1699 112.651 20.1699C114.09 20.1699 115.384 20.4665 116.531 21.0599C117.679 21.6532 118.583 22.5135 119.245 23.6407C119.906 24.7679 120.237 26.1227 120.237 27.7048V28.1795C120.237 29.7616 119.906 31.1164 119.245 32.2436C118.583 33.3708 117.679 34.2311 116.531 34.8244C115.384 35.4178 114.09 35.7144 112.651 35.7144ZM112.651 32.3919C113.779 32.3919 114.713 32.0261 115.452 31.2943C116.191 30.5428 116.56 29.4748 116.56 28.0904V27.7939C116.56 26.4095 116.191 25.3514 115.452 24.6197C114.732 23.8682 113.798 23.4924 112.651 23.4924C111.523 23.4924 110.589 23.8682 109.85 24.6197C109.111 25.3514 108.741 26.4095 108.741 27.7939V28.0904C108.741 29.4748 109.111 30.5428 109.85 31.2943C110.589 32.0261 111.523 32.3919 112.651 32.3919Z" fill="#192657"/>
<path d="M122.317 35.2991V20.5851H125.993V35.2991H122.317ZM124.155 18.8646C123.494 18.8646 122.93 18.6471 122.463 18.212C122.016 17.7768 121.792 17.2033 121.792 16.4915C121.792 15.7795 122.016 15.2059 122.463 14.7708C122.93 14.3358 123.494 14.1182 124.155 14.1182C124.836 14.1182 125.4 14.3358 125.847 14.7708C126.295 15.2059 126.518 15.7795 126.518 16.4915C126.518 17.2033 126.295 17.7768 125.847 18.212C125.4 18.6471 124.836 18.8646 124.155 18.8646Z" fill="#192657"/>
<path d="M128.754 41.2322V20.5852H132.372V22.3652H132.897C133.227 21.7916 133.742 21.2873 134.444 20.8522C135.144 20.3973 136.146 20.1699 137.449 20.1699C138.616 20.1699 139.695 20.4665 140.687 21.0599C141.679 21.6333 142.476 22.4837 143.08 23.6111C143.683 24.7383 143.984 26.1029 143.984 27.7048V28.1795C143.984 29.7814 143.683 31.146 143.08 32.2732C142.476 33.4006 141.679 34.2608 140.687 34.8541C139.695 35.4277 138.616 35.7144 137.449 35.7144C136.573 35.7144 135.834 35.6056 135.231 35.3881C134.647 35.1903 134.171 34.9332 133.802 34.6168C133.451 34.2806 133.169 33.9444 132.956 33.6082H132.43V41.2322H128.754ZM136.34 32.4512C137.488 32.4512 138.431 32.0853 139.17 31.3536C139.928 30.6022 140.308 29.5144 140.308 28.0904V27.7939C140.308 26.3699 139.928 25.292 139.17 24.5603C138.412 23.8089 137.468 23.4331 136.34 23.4331C135.211 23.4331 134.268 23.8089 133.51 24.5603C132.751 25.292 132.372 26.3699 132.372 27.7939V28.0904C132.372 29.5144 132.751 30.6022 133.51 31.3536C134.268 32.0853 135.211 32.4512 136.34 32.4512Z" fill="#192657"/>
<path d="M152.057 35.7144C150.17 35.7144 148.623 35.2991 147.417 34.4685C146.213 33.6378 145.483 32.4512 145.229 30.9086L148.614 30.0187C148.75 30.7108 148.974 31.2548 149.285 31.6503C149.616 32.0458 150.015 32.3326 150.482 32.5106C150.967 32.6687 151.493 32.7479 152.057 32.7479C152.912 32.7479 153.545 32.5995 153.954 32.3029C154.362 31.9865 154.566 31.6008 154.566 31.146C154.566 30.6911 154.372 30.3451 153.982 30.1077C153.594 29.8506 152.972 29.6429 152.115 29.4848L151.298 29.3364C150.286 29.1386 149.362 28.8716 148.526 28.5354C147.69 28.1795 147.019 27.6949 146.513 27.0819C146.008 26.4687 145.754 25.6777 145.754 24.7086C145.754 23.2452 146.28 22.1278 147.331 21.3565C148.38 20.5654 149.762 20.1699 151.473 20.1699C153.088 20.1699 154.43 20.5358 155.499 21.2676C156.569 21.9993 157.269 22.9585 157.601 24.1451L154.187 25.2129C154.032 24.4615 153.711 23.9274 153.224 23.6111C152.757 23.2947 152.173 23.1364 151.473 23.1364C150.773 23.1364 150.239 23.2649 149.868 23.522C149.5 23.7594 149.315 24.0956 149.315 24.5307C149.315 25.0053 149.509 25.3612 149.898 25.5986C150.286 25.8161 150.812 25.9843 151.473 26.1029L152.29 26.2512C153.379 26.449 154.362 26.716 155.238 27.0522C156.132 27.3686 156.832 27.8333 157.338 28.4465C157.863 29.0398 158.126 29.8506 158.126 30.879C158.126 32.4216 157.571 33.6181 156.462 34.4685C155.374 35.2991 153.905 35.7144 152.057 35.7144Z" fill="#192657"/>
<path d="M165.548 35.5371C164.421 35.5371 163.428 35.28 162.573 34.7659C161.737 34.2319 161.085 33.5001 160.618 32.5707C160.152 31.6412 159.917 30.5732 159.917 29.3669V20.5859H163.594V29.0701C163.594 30.1776 163.857 31.0083 164.382 31.562C164.926 32.1158 165.694 32.3926 166.687 32.3926C167.814 32.3926 168.69 32.0169 169.313 31.2654C169.935 30.4941 170.246 29.4262 170.246 28.0616V20.5859H173.922V35.2999H170.304V33.3716H169.78C169.546 33.8661 169.108 34.3505 168.466 34.8251C167.825 35.2999 166.851 35.5371 165.548 35.5371Z" fill="#192657"/>
<path d="M176.701 35.2998V20.5859H180.318V22.1878H180.843C181.095 21.6934 181.515 21.2682 182.097 20.9122C182.681 20.5365 183.45 20.3486 184.403 20.3486C185.433 20.3486 186.26 20.5563 186.883 20.9715C187.505 21.3671 187.981 21.8911 188.313 22.5438H188.837C189.168 21.911 189.635 21.3869 190.238 20.9715C190.842 20.5563 191.697 20.3486 192.806 20.3486C193.7 20.3486 194.508 20.5464 195.227 20.9419C195.966 21.3176 196.55 21.901 196.978 22.6922C197.425 23.4634 197.649 24.4423 197.649 25.629V35.2998H193.972V25.896C193.972 25.0851 193.769 24.4819 193.36 24.0864C192.951 23.6711 192.378 23.4634 191.639 23.4634C190.803 23.4634 190.15 23.7403 189.683 24.294C189.237 24.828 189.013 25.5993 189.013 26.608V35.2998H185.336V25.896C185.336 25.0851 185.132 24.4819 184.724 24.0864C184.315 23.6711 183.742 23.4634 183.002 23.4634C182.166 23.4634 181.515 23.7403 181.048 24.294C180.6 24.828 180.376 25.5993 180.376 26.608V35.2998H176.701Z" fill="#192657"/>
</g>
<defs>
<linearGradient id="paint0_linear_7_961" x1="7.96563" y1="9.78553" x2="40.7892" y2="9.78554" gradientUnits="userSpaceOnUse">
<stop stop-color="#64C2DB"/>
<stop offset="0.307292" stop-color="#7476ED"/>
<stop offset="0.604167" stop-color="#C994DF"/>
<stop offset="1" stop-color="#E56F8C"/>
</linearGradient>
<clipPath id="clip0_7_961">
<rect width="198" height="50" fill="white" transform="translate(0.75 0.171875)"/>
</clipPath>
</defs>
</svg>
